<svg width="15" height="15" viewBox="0 0 15 15" fill="none" xmlns="http://www.w3.org/2000/svg">
<path d="M8.98206 12.2928V7.62618C8.98206 7.47147 8.9206 7.3231 8.8112 7.2137C8.7018 7.1043 8.55343 7.04285 8.39872 7.04285H6.06539C5.91068 7.04285 5.76231 7.1043 5.65291 7.2137C5.54351 7.3231 5.48206 7.47147 5.48206 7.62618V12.2928" stroke="#0A0A0A" stroke-width="1.16667" stroke-linecap="round" stroke-linejoin="round"/>
<path d="M1.98206 5.87617C1.98202 5.70646 2.019 5.53879 2.09043 5.38484C2.16186 5.2309 2.26602 5.09439 2.39564 4.98484L6.47897 1.48484C6.68955 1.30687 6.95635 1.20923 7.23206 1.20923C7.50776 1.20923 7.77456 1.30687 7.98514 1.48484L12.0685 4.98484C12.1981 5.09439 12.3022 5.2309 12.3737 5.38484C12.4451 5.53879 12.4821 5.70646 12.4821 5.87617V11.1262C12.4821 11.4356 12.3591 11.7323 12.1403 11.9511C11.9216 12.1699 11.6248 12.2928 11.3154 12.2928H3.14872C2.8393 12.2928 2.54256 12.1699 2.32376 11.9511C2.10497 11.7323 1.98206 11.4356 1.98206 11.1262V5.87617Z" stroke="#0A0A0A" stroke-width="1.16667" stroke-linecap="round" stroke-linejoin="round"/>
</svg>
