<svg width="10" height="9" viewBox="0 0 10 9" fill="none" xmlns="http://www.w3.org/2000/svg">
<path d="M7.7875 7.65L7 4.0625L8.53125 2.53125C9.1875 1.875 9.40625 1 9.1875 0.5625C8.75 0.34375 7.875 0.5625 7.21875 1.21875L5.6875 2.75L2.1 1.9625C1.88125 1.91875 1.70625 2.00625 1.61875 2.18125L1.4875 2.4C1.4 2.61875 1.44375 2.8375 1.61875 2.96875L3.9375 4.5L3.0625 5.8125H1.75L1.3125 6.25L2.625 7.125L3.5 8.4375L3.9375 8V6.6875L5.25 5.8125L6.78125 8.13125C6.9125 8.30625 7.13125 8.35 7.35 8.2625L7.56875 8.175C7.74375 8.04375 7.83125 7.86875 7.7875 7.65Z" stroke="#717182" stroke-width="0.875" stroke-linecap="round" stroke-linejoin="round"/>
</svg>
