<svg width="15" height="15" viewBox="0 0 15 15" fill="none" xmlns="http://www.w3.org/2000/svg">
<path d="M9.45486 12.8224V11.6557C9.45486 11.0369 9.20903 10.4434 8.77144 10.0058C8.33386 9.56822 7.74036 9.32239 7.12153 9.32239H3.62153C3.00269 9.32239 2.4092 9.56822 1.97161 10.0058C1.53403 10.4434 1.28819 11.0369 1.28819 11.6557V12.8224" stroke="#030213" stroke-width="1.16667" stroke-linecap="round" stroke-linejoin="round"/>
<path d="M9.45485 2.39709C9.95521 2.52681 10.3983 2.819 10.7147 3.2278C11.031 3.6366 11.2026 4.13886 11.2026 4.65576C11.2026 5.17266 11.031 5.67493 10.7147 6.08372C10.3983 6.49252 9.95521 6.78471 9.45485 6.91443" stroke="#030213" stroke-width="1.16667" stroke-linecap="round" stroke-linejoin="round"/>
<path d="M12.9548 12.8224V11.6557C12.9545 11.1387 12.7824 10.6365 12.4656 10.2279C12.1489 9.81928 11.7054 9.52744 11.2048 9.39819" stroke="#030213" stroke-width="1.16667" stroke-linecap="round" stroke-linejoin="round"/>
<path d="M5.37153 6.98905C6.66019 6.98905 7.70486 5.94439 7.70486 4.65572C7.70486 3.36706 6.66019 2.32239 5.37153 2.32239C4.08286 2.32239 3.03819 3.36706 3.03819 4.65572C3.03819 5.94439 4.08286 6.98905 5.37153 6.98905Z" stroke="#030213" stroke-width="1.16667" stroke-linecap="round" stroke-linejoin="round"/>
</svg>
