<svg width="15" height="15" viewBox="0 0 15 15" fill="none" xmlns="http://www.w3.org/2000/svg">
<path d="M11.8488 5.87638C11.8488 8.78897 8.61775 11.8223 7.53275 12.7591C7.43168 12.8351 7.30863 12.8762 7.18217 12.8762C7.0557 12.8762 6.93266 12.8351 6.83159 12.7591C5.74659 11.8223 2.5155 8.78897 2.5155 5.87638C2.5155 4.63871 3.00717 3.45172 3.88234 2.57655C4.75751 1.70138 5.94449 1.20972 7.18217 1.20972C8.41985 1.20972 9.60683 1.70138 10.482 2.57655C11.3572 3.45172 11.8488 4.63871 11.8488 5.87638Z" stroke="#717182" stroke-width="1.16667" stroke-linecap="round" stroke-linejoin="round"/>
<path d="M7.18213 7.62622C8.14863 7.62622 8.93213 6.84272 8.93213 5.87622C8.93213 4.90972 8.14863 4.12622 7.18213 4.12622C6.21563 4.12622 5.43213 4.90972 5.43213 5.87622C5.43213 6.84272 6.21563 7.62622 7.18213 7.62622Z" stroke="#717182" stroke-width="1.16667" stroke-linecap="round" stroke-linejoin="round"/>
</svg>
