<svg width="29" height="29" viewBox="0 0 29 29" fill="none" xmlns="http://www.w3.org/2000/svg">
<path d="M23.9333 12.5556C23.9333 18.3807 17.4712 24.4474 15.3012 26.3211C15.099 26.4731 14.8529 26.5553 14.6 26.5553C14.3471 26.5553 14.101 26.4731 13.8988 26.3211C11.7288 24.4474 5.26667 18.3807 5.26667 12.5556C5.26667 10.0802 6.25 7.70624 8.00034 5.9559C9.75068 4.20556 12.1246 3.22223 14.6 3.22223C17.0754 3.22223 19.4493 4.20556 21.1997 5.9559C22.95 7.70624 23.9333 10.0802 23.9333 12.5556Z" stroke="#00A63E" stroke-width="2.33333" stroke-linecap="round" stroke-linejoin="round"/>
<path d="M14.6 16.0556C16.533 16.0556 18.1 14.4886 18.1 12.5556C18.1 10.6226 16.533 9.0556 14.6 9.0556C12.667 9.0556 11.1 10.6226 11.1 12.5556C11.1 14.4886 12.667 16.0556 14.6 16.0556Z" stroke="#00A63E" stroke-width="2.33333" stroke-linecap="round" stroke-linejoin="round"/>
</svg>
