<svg width="22" height="22" viewBox="0 0 22 22" fill="none" xmlns="http://www.w3.org/2000/svg">
<path d="M10.2515 2.61716C10.2898 2.53969 10.3491 2.47448 10.4225 2.42888C10.4959 2.38329 10.5807 2.35913 10.6671 2.35913C10.7535 2.35913 10.8383 2.38329 10.9117 2.42888C10.9851 2.47448 11.0444 2.53969 11.0827 2.61716L13.104 6.71129C13.2371 6.98076 13.4337 7.2139 13.6768 7.39068C13.9199 7.56747 14.2022 7.68264 14.4996 7.72629L19.0199 8.38779C19.1055 8.4002 19.186 8.43633 19.2522 8.49209C19.3183 8.54785 19.3676 8.62102 19.3944 8.70332C19.4211 8.78562 19.4243 8.87377 19.4036 8.95779C19.3829 9.04182 19.3391 9.11837 19.2771 9.17879L16.0081 12.362C15.7925 12.5721 15.6312 12.8315 15.5381 13.1177C15.445 13.404 15.4228 13.7086 15.4735 14.0053L16.2452 18.5028C16.2603 18.5884 16.2511 18.6765 16.2185 18.7571C16.186 18.8377 16.1314 18.9076 16.0611 18.9587C15.9907 19.0097 15.9075 19.04 15.8207 19.0461C15.734 19.0521 15.6473 19.0336 15.5706 18.9928L11.5299 16.8683C11.2636 16.7285 10.9674 16.6554 10.6667 16.6554C10.3659 16.6554 10.0697 16.7285 9.80348 16.8683L5.7636 18.9928C5.68689 19.0334 5.60032 19.0517 5.51375 19.0455C5.42717 19.0394 5.34406 19.009 5.27386 18.958C5.20366 18.9069 5.14921 18.8372 5.11668 18.7567C5.08415 18.6763 5.07485 18.5883 5.08985 18.5028L5.86073 14.0062C5.91165 13.7093 5.88959 13.4045 5.79645 13.1181C5.70331 12.8316 5.54188 12.5722 5.3261 12.362L2.0571 9.17966C1.99462 9.11932 1.95035 9.04263 1.92932 8.95835C1.90829 8.87407 1.91136 8.78558 1.93817 8.70295C1.96498 8.62033 2.01446 8.5469 2.08097 8.49102C2.14748 8.43515 2.22834 8.39907 2.31435 8.38691L6.83373 7.72629C7.13145 7.68297 7.41419 7.56796 7.65761 7.39115C7.90103 7.21434 8.09784 6.98102 8.2311 6.71129L10.2515 2.61716Z" stroke="#D08700" stroke-width="1.75" stroke-linecap="round" stroke-linejoin="round"/>
</svg>
