<svg width="12" height="11" viewBox="0 0 12 11" fill="none" xmlns="http://www.w3.org/2000/svg">
<path d="M5.74221 1.09294C5.76138 1.05421 5.791 1.0216 5.82772 0.998805C5.86444 0.976008 5.9068 0.963928 5.95002 0.963928C5.99325 0.963928 6.03561 0.976008 6.07233 0.998805C6.10905 1.0216 6.13866 1.05421 6.15784 1.09294L7.16846 3.14001C7.23504 3.27474 7.33332 3.39131 7.45486 3.47971C7.5764 3.5681 7.71758 3.62568 7.86627 3.64751L10.1264 3.97826C10.1692 3.98446 10.2095 4.00253 10.2426 4.03041C10.2756 4.05829 10.3003 4.09487 10.3137 4.13602C10.327 4.17717 10.3286 4.22125 10.3183 4.26326C10.3079 4.30527 10.286 4.34355 10.255 4.37376L8.62052 5.96538C8.51273 6.07043 8.43208 6.20009 8.38551 6.34322C8.33895 6.48635 8.32786 6.63865 8.35321 6.78701L8.73909 9.03576C8.74665 9.07856 8.74202 9.12263 8.72574 9.16293C8.70946 9.20323 8.68218 9.23815 8.64701 9.26369C8.61184 9.28924 8.5702 9.30438 8.52684 9.3074C8.48348 9.31042 8.44014 9.30118 8.40177 9.28076L6.3814 8.21851C6.24828 8.14861 6.10017 8.11208 5.94981 8.11208C5.79945 8.11208 5.65134 8.14861 5.51821 8.21851L3.49827 9.28076C3.45992 9.30106 3.41664 9.31019 3.37335 9.30712C3.33006 9.30404 3.2885 9.28888 3.2534 9.26335C3.21831 9.23783 3.19108 9.20296 3.17481 9.16273C3.15855 9.12249 3.1539 9.0785 3.1614 9.03576L3.54684 6.78744C3.5723 6.63901 3.56127 6.48662 3.5147 6.3434C3.46813 6.20019 3.38742 6.07045 3.27952 5.96538L1.64502 4.37419C1.61378 4.34402 1.59165 4.30568 1.58113 4.26354C1.57062 4.2214 1.57215 4.17715 1.58556 4.13584C1.59896 4.09453 1.6237 4.05781 1.65696 4.02987C1.69021 4.00194 1.73064 3.9839 1.77365 3.97782L4.03334 3.64751C4.1822 3.62585 4.32357 3.56834 4.44528 3.47994C4.56699 3.39153 4.66539 3.27488 4.73202 3.14001L5.74221 1.09294Z" stroke="#EFB100" stroke-width="0.875" stroke-linecap="round" stroke-linejoin="round"/>
</svg>
